<?xml version="1.0" encoding="utf-8"?>
<svg xmlns="http://www.w3.org/2000/svg" viewBox="0 0 24 24" width="96" height="96">
  <path d="M7 5C3.1545455 5 0 8.1545455 0 12C0 15.845455 3.1545455 19 7 19C9.7749912 19 12.089412 17.314701 13.271484 15L16 15L16 18L22 18L22 15L24 15L24 9L23 9L13.287109 9C12.172597 6.6755615 9.8391582 5 7 5 z M 7 7C9.2802469 7 11.092512 8.4210017 11.755859 10.328125L11.988281 11L22 11L22 13L20 13L20 16L18 16L18 13L12.017578 13L11.769531 13.634766C11.010114 15.575499 9.1641026 17 7 17C4.2454545 17 2 14.754545 2 12C2 9.2454545 4.2454545 7 7 7 z M 7 9C5.3549904 9 4 10.35499 4 12C4 13.64501 5.3549904 15 7 15C8.6450096 15 10 13.64501 10 12C10 10.35499 8.6450096 9 7 9 z M 7 11C7.5641294 11 8 11.435871 8 12C8 12.564129 7.5641294 13 7 13C6.4358706 13 6 12.564129 6 12C6 11.435871 6.4358706 11 7 11 z" fill="#818181" />
</svg>